<?xml version="1.0" standalone="no"?>
<svg viewBox="0 0 200 200" xmlns="http://www.w3.org/2000/svg">
  <path fill="#0001FA" d="M43.4,-70C54.7,-60.2,61.4,-45.6,68.9,-30.9C76.4,-16.2,84.9,-1.4,85,13.7C85.1,28.8,77,44.2,65,54.2C53,64.2,37.3,68.7,22.1,71.4C6.9,74,-7.7,74.9,-19.4,69.7C-31.1,64.6,-40,53.5,-50.5,42.9C-61,32.3,-73.1,22.3,-75.2,10.5C-77.4,-1.3,-69.6,-14.7,-63.1,-28.7C-56.5,-42.6,-51.2,-57,-40.9,-67.3C-30.6,-77.7,-15.3,-84,0.4,-84.5C16,-85.1,32,-79.9,43.4,-70Z" transform="translate(100 100)" />
</svg>
